<?xml version="1.0" encoding="UTF-8" standalone="no"?><!DOCTYPE svg PUBLIC "-//W3C//DTD SVG 1.1//EN" "http://www.w3.org/Graphics/SVG/1.1/DTD/svg11.dtd"><svg width="100%" height="100%" viewBox="0 0 395 91" version="1.1" xmlns="http://www.w3.org/2000/svg" xmlns:xlink="http://www.w3.org/1999/xlink" xml:space="preserve" xmlns:serif="http://www.serif.com/" style="fill-rule:evenodd;clip-rule:evenodd;stroke-linejoin:round;stroke-miterlimit:2;"><g><path d="M0,0.076l0,51.264l38.287,0l0,-8.312l-28.551,0l0,-42.952l-9.736,-0Z" style="fill:#fff;fill-rule:nonzero;"/><path d="M114.121,0.076l9.873,-0l0,30.738c0,6.082 -2.304,11.175 -6.911,15.357c-4.608,4.13 -10.395,6.132 -17.169,6.132c-6.829,-0 -12.552,-2.044 -17.169,-6.132c-4.608,-4.182 -6.911,-9.3 -6.911,-15.357l-0,-30.738l9.791,-0l0,30.662c0,3.7 1.371,6.918 4.141,9.401c2.688,2.484 6.171,3.827 10.203,3.827c4.031,-0 7.432,-1.267 10.12,-3.827c1.339,-1.229 2.397,-2.695 3.108,-4.31c0.711,-1.616 1.063,-3.347 1.033,-5.091c-0.109,0 -0.109,-30.662 -0.109,-30.662Z" style="fill:#fff;fill-rule:nonzero;"/><path d="M166.148,51.34l0,-51.264l8.613,-0l30.443,35.578l-0,-35.578l9.462,-0l-0,51.264l-8.613,0l-30.498,-35.705l0,35.705l-9.407,0Z" style="fill:#fff;fill-rule:nonzero;"/><path d="M285.316,0.076l-7.954,-0l-23.888,51.264l10.257,0l17.635,-38.442l17.636,38.442l10.257,0l-23.943,-51.264Z" style="fill:#fff;fill-rule:nonzero;"/><path d="M381.61,31.346c3.208,-1.188 5.955,-3.243 7.878,-5.898c1.923,-2.654 2.934,-5.783 2.9,-8.977c0,-4.612 -1.837,-8.565 -5.458,-11.732c-3.62,-3.092 -8.145,-4.739 -13.494,-4.739l-25.506,0l0,8.388l25.506,-0c4.992,-0 8.75,3.471 8.75,8.083c-0,4.612 -3.675,8.084 -8.75,8.084l-25.506,0l0,26.785l9.792,0l-0,-18.473l13.822,-0l12.041,18.473l10.915,0l-12.89,-19.994Z" style="fill:#fff;fill-rule:nonzero;"/><path d="M12.342,75.62c-0.329,-1.571 -2.304,-2.736 -4.663,-2.736c-2.55,-0 -4.525,1.267 -4.525,3.091c0,0.963 0.521,1.647 1.7,2.18c1.262,0.557 2.112,0.785 4.087,1.266c1.212,0.206 2.385,0.573 3.483,1.09c1.838,0.786 2.907,2.002 3.017,4.257c0,1.698 -0.713,3.168 -2.167,4.181c-1.371,1.04 -3.236,1.571 -5.457,1.571c-2.03,0 -3.758,-0.43 -5.129,-1.343c-1.372,-0.912 -2.304,-2.002 -2.688,-3.344l2.496,-0.659c0.137,0.861 0.713,1.571 1.7,2.179c1.053,0.626 2.286,0.944 3.538,0.912c1.454,0 2.633,-0.304 3.62,-0.963c0.449,-0.256 0.818,-0.614 1.072,-1.04c0.255,-0.426 0.386,-0.905 0.382,-1.392c0,-1.04 -0.521,-1.749 -1.591,-2.256c-0.994,-0.48 -2.055,-0.83 -3.154,-1.039c-0.603,-0.127 -1.042,-0.253 -1.261,-0.304l-1.042,-0.253c-0.412,-0.098 -0.808,-0.242 -1.18,-0.431l-1.042,-0.431c-0.932,-0.355 -1.124,-0.658 -1.783,-1.216c-0.795,-0.659 -1.179,-1.647 -1.179,-2.914c-0.014,-0.754 0.156,-1.501 0.498,-2.185c0.342,-0.685 0.847,-1.289 1.477,-1.768c1.316,-1.039 2.962,-1.571 4.991,-1.571c1.676,-0.031 3.326,0.392 4.745,1.216c1.316,0.785 2.167,1.824 2.496,3.091l-2.441,0.811Z" style="fill:#fff;fill-rule:nonzero;"/><path d="M51,73.379l0,-2.129l18.485,0l0,2.129l-8.036,-0l0,17.256l-2.495,0l-0,-17.256l-7.954,-0Z" style="fill:#fff;fill-rule:nonzero;"/><path d="M114.407,70.5c1.92,0 3.566,0.557 4.8,1.698c0.626,0.545 1.12,1.206 1.451,1.939c0.331,0.734 0.49,1.524 0.469,2.318c0.015,1.246 -0.406,2.462 -1.203,3.467c-0.795,1.005 -1.923,1.745 -3.213,2.108l5.184,7.831l-2.825,-0.001l-5.074,-7.475l-6.5,-0.001l0,7.477l-2.496,-0.001l0,-19.36l9.407,0Zm-6.911,2.179l0,7.527l6.911,-0c0.549,0.015 1.094,-0.075 1.604,-0.262c0.509,-0.187 0.972,-0.469 1.358,-0.828c0.381,-0.347 0.683,-0.761 0.885,-1.219c0.203,-0.457 0.303,-0.948 0.295,-1.442c0.019,-0.495 -0.077,-0.989 -0.281,-1.448c-0.203,-0.458 -0.509,-0.872 -0.899,-1.213c-0.386,-0.359 -0.849,-0.641 -1.358,-0.828c-0.51,-0.188 -1.055,-0.277 -1.604,-0.261l-6.911,-0l0,-0.026Z" style="fill:#fff;fill-rule:nonzero;"/><path d="M168.69,70.5l-1.975,0l-9.215,19.361l2.633,-0.001l7.625,-16.04l7.569,16.041l2.633,-0l-9.27,-19.361Z" style="fill:#fff;fill-rule:nonzero;"/><path d="M213.75,73.379l0,-2.129l18.485,0l0,2.129l-8.035,-0l-0,17.256l-2.496,0l-0,-17.256l-7.954,-0Z" style="fill:#fff;fill-rule:nonzero;"/><path d="M282.807,71.301l0,2.128l-12.561,0l-0,6.386l10.998,0l0,2.129l-10.998,-0.001l-0,6.538l12.698,0l0,2.13l-15.194,-0l0,-19.361l15.057,0.051Z" style="fill:#fff;fill-rule:nonzero;"/><path d="M321.851,73.364c2.112,-1.952 4.663,-2.864 7.817,-2.864c4.196,0 7.762,1.951 9.599,4.992l-2.441,0.862c-0.76,-1.115 -1.817,-2.029 -3.072,-2.655c-1.254,-0.625 -2.661,-0.942 -4.086,-0.918c-2.359,-0 -4.416,0.735 -5.979,2.255c-1.591,1.47 -2.359,3.269 -2.359,5.525c-0.038,2.047 0.789,4.029 2.304,5.523c1.039,0.97 2.344,1.659 3.777,1.99c1.432,0.332 2.935,0.295 4.346,-0.108c1.411,-0.402 2.675,-1.154 3.656,-2.173c0.981,-1.02 1.64,-2.269 1.907,-3.611l-8.612,0l-0,-2.179l11.437,-0c-0,0.354 0.054,0.608 0.054,0.786c-0.054,2.736 -1.124,5.093 -3.153,6.918c-2.03,1.875 -4.608,2.787 -7.57,2.787c-3.017,-0 -5.595,-0.963 -7.625,-2.864c-1.005,-0.93 -1.797,-2.038 -2.329,-3.256c-0.533,-1.219 -0.794,-2.525 -0.77,-3.839c-0.054,-2.914 0.987,-5.296 3.099,-7.171Z" style="fill:#fff;fill-rule:nonzero;"/><path d="M375.75,71.25l2.907,0l6.5,9.3l6.582,-9.3l2.908,0l-8.228,11.429l-0,7.956l-2.496,0l-0,-7.906l-8.173,-11.479Z" style="fill:#fff;fill-rule:nonzero;"/></g></svg>